<svg width="427" height="477" viewBox="0 0 427 477" fill="none" xmlns="http://www.w3.org/2000/svg">
<ellipse cx="214" cy="402" rx="80" ry="43" fill="#F3AE47"/>
<path d="M213.5 139L268.528 141.742C307.916 143.704 338.845 176.212 338.845 215.65V257.052C338.845 267.117 340.899 277.077 344.88 286.322L364.083 330.911C388.971 388.698 334.962 449.209 274.728 431.022L234.89 418.993C220.941 414.782 206.059 414.782 192.11 418.993L152.272 431.022C92.0387 449.209 38.0293 388.698 62.9169 330.911L82.1199 286.322C86.1014 277.077 88.155 267.117 88.155 257.052L88.1549 215.65C88.1549 176.212 119.084 143.704 158.473 141.742L213.5 139Z" fill="#FBE2A4"/>
<path d="M195.301 372.007C206.285 378.209 219.715 378.209 230.699 372.007L250.463 360.849C282.696 342.65 269.779 293.5 232.764 293.5H193.236C156.221 293.5 143.304 342.65 175.537 360.849L195.301 372.007Z" fill="black"/>
<path d="M253.945 70.5556C262.044 47.2835 294.956 47.2835 303.055 70.5555L322.336 125.954C328.216 142.851 315.671 160.5 297.78 160.5H259.22C241.329 160.5 228.784 142.851 234.664 125.954L253.945 70.5556Z" fill="#FBE2A4"/>
<path d="M120.945 70.5556C129.044 47.2835 161.956 47.2835 170.055 70.5555L189.336 125.954C195.216 142.851 182.671 160.5 164.78 160.5H126.22C108.329 160.5 95.7838 142.851 101.664 125.954L120.945 70.5556Z" fill="#FBE2A4"/>
<circle cx="157.5" cy="232.5" r="38.5" stroke="black" stroke-width="10"/>
<circle cx="269.5" cy="232.5" r="38.5" stroke="black" stroke-width="10"/>
<path d="M108 228C105.239 228 103 230.239 103 233C103 235.761 105.239 238 108 238L108 228ZM120 228L108 228L108 238L120 238L120 228Z" fill="black"/>
<path d="M319 228C321.761 228 324 230.239 324 233C324 235.761 321.761 238 319 238L319 228ZM307 228L319 228L319 238L307 238L307 228Z" fill="black"/>
<path fill-rule="evenodd" clip-rule="evenodd" d="M191.948 229H200.241C202.496 222.52 207.584 218 213.5 218C219.416 218 224.504 222.52 226.759 229H235.052C232.491 218.906 224.857 210 213.5 210C202.143 210 194.509 218.906 191.948 229Z" fill="black"/>
</svg>
